# AST/ASF file generated using VICON BodyLanguage
# -----------------------------------------------
:version 1.10
:name VICON
:units
  mass 1.0
  length 0.45
  angle deg
:documentation
   .ast/.asf automatically generated from VICON data using
   VICON BodyBuilder and BodyLanguage model FoxedUp or BRILLIANT.MOD
:root
   order TX TY TZ RX RY RZ
   axis XYZ
   position 0 0 0  
   orientation 0 0 0 
:bonedata
  begin
     id 1 
     name lhipjoint
     direction 0.690799 -0.707083 0.151096 
     length 2.54797 
     axis 0 0 0  XYZ
  end
  begin
     id 2 
     name lfemur
     direction 0.34202 -0.939693 0  
     length 7.21646  
     axis 0 0 20  XYZ
    dof rx ry rz
    limits (-160.0 20.0)
           (-70.0 70.0)
           (-60.0 70.0)
  end
  begin
     id 3 
     name ltibia
     direction 0.34202 -0.939693 0   
     length 8.16759   
     axis 0 0 20   XYZ
    dof rx
    limits (-10.0 170.0)
  end
  begin
     id 4 
     name lfoot
     direction 0.0487203 -0.133858 0.989802   
     length 1.93375   
     axis -90 7.62852e-016 20   XYZ
    dof rx rz
    limits (-45.0 90.0)
           (-70.0 20.0)
  end
  begin
     id 5 
     name ltoes
     direction 1.53453e-011 -4.21783e-011 1   
     length 0.979747   
     axis -90 7.62852e-016 20   XYZ
    dof rx
    limits (-90.0 20.0)
  end
  begin
     id 6 
     name rhipjoint
     direction -0.694693 -0.703425 0.150315   
     length 2.56122  
     axis 0 0 0  XYZ 
  end
  begin
     id 7 
     name rfemur
     direction -0.34202 -0.939693 0   
     length 7.36786   
     axis 0 0 -20   XYZ
    dof rx ry rz
    limits (-160.0 20.0)
           (-70.0 70.0)
           (-70.0 60.0)
  end
  begin
     id 8 
     name rtibia
     direction -0.34202 -0.939693 0   
     length 8.07288   
     axis 0 0 -20   XYZ
    dof rx
    limits (-10.0 170.0)
 end
 begin
     id 9 
     name rfoot
     direction -0.0428397 -0.117701 0.992125   
     length 1.88295  
     axis -90 -7.62852e-016 -20   XYZ
    dof rx rz
    limits (-45.0 90.0)
           (-20.0 70.0)
  end
  begin
     id 10 
     name rtoes
     direction -1.53456e-011 -4.2187e-011 1   
     length 0.955578   
     axis -90 -7.62852e-016 -20   XYZ
    dof rx
    limits (-90.0 20.0)
  end
  begin
     id 11 
     name lowerback
     direction 0.0288145 0.999398 -0.0193241   
     length 1.92149   
     axis 0 0 0   XYZ
    dof rx ry rz
    limits (-20.0 45.0)
           (-30.0 30.0)
           (-30.0 30.0)
  end
  begin
     id 12 
     name upperback
     direction 0.0233784 0.998099 0.0570278   
     length 1.90435   
     axis 0 0 0   XYZ
    dof rx ry rz
    limits (-20.0 45.0)
           (-30.0 30.0)
           (-30.0 30.0)
  end
  begin
     id 13 
     name thorax
     direction 0.0096694 0.997833 0.0650817   
     length 1.9111   
     axis 0 0 0   XYZ
    dof rx ry rz
    limits (-20.0 45.0)
           (-30.0 30.0)
           (-30.0 30.0)
  end
  begin
     id 14 
     name lowerneck
     direction 0.00516803 0.999916 0.0118722   
     length 1.74664   
     axis 0 0 0   XYZ
    dof rx ry rz
    limits (-20.0 45.0)
           (-30.0 30.0)
           (-30.0 30.0)
  end
  begin
     id 15 
     name upperneck
     direction -0.0510851 0.996117 -0.071696   
     length 1.68498   
     axis 0 0 0   XYZ
    dof rx ry rz
    limits (-20.0 45.0)
           (-30.0 30.0)
           (-30.0 30.0)
  end
  begin
     id 16
     name head
     direction -0.019188 0.999436 -0.0275702  
     length 1.83483  
     axis 0 0 0   XYZ
    dof rx ry rz
    limits (-20.0 45.0)
           (-30.0 30.0)
           (-30.0 30.0)
  end
  begin
     id 17 
     name lclavicle
     direction 0.967006 0.248456 -0.0562957  
     length 3.39395  
     axis 0 0 0   XYZ
    dof ry rz
    limits (-20.0 10.0)
           (0.0 20.0)
  end
  begin
     id 18 
     name lhumerus
     direction 1 -4.48962e-011 -5.62711e-019   
     length 5.24318   
     axis 180 -30 -90   XYZ
    dof rx ry rz
    limits (-60.0 90.0)
           (-90.0 90.0)
           (-90.0 90.0)
  end
  begin
     id 19
     name lradius
     direction 1 -4.48966e-011 7.90625e-027   
     length 2.98999   
     axis 180 -30 -90   XYZ
    dof rx
    limits (-10.0 170.0)
  end
  begin
     id 20
     name lwrist
     direction 1 -4.48959e-011 1.61068e-026   
     length 1.49499   
     axis -9.31229e-015 90 90   XYZ
    dof ry
    limits (-180.0 0.0)
 end
  begin
     id 21 
     name lhand
     direction 1 -4.49017e-011 3.22136e-026   
     length 0.726745   
     axis -2.0555e-014 90 90   XYZ
    dof rx rz
    limits (-90.0 90.0)
           (-45.0 45.0)
  end
  begin
     id 22 
     name lfingers
     direction 1 -4.4898e-011 6.44272e-026   
     length 0.58592   
     axis -4.11101e-014 90 90   XYZ
    dof rx
    limits (0.0 90.0)
  end
  begin
     id 23
     name lthumb
     direction 0.707107 -6.34922e-011 0.707107   
     length 0.841268   
     axis -90 45 2.85299e-015   XYZ
    dof rx rz
    limits (-45.0 45.0)
           (-45.0 45.0)
  end
  begin
     id 24 
     name rclavicle
     direction -0.972232 0.230238 0.0419005   
     length 3.40416  
     axis 0 0 0   XYZ 
    dof ry rz
    limits (-10.0 20.0)
           (-20.0 0.0)
  end
  begin
     id 25 
     name rhumerus
     direction -1 -4.48976e-011 2.48487e-027  
     length 5.37045   
     axis 180 30 90   XYZ
    dof rx ry rz
    limits (-90.0 60.0)
           (-90.0 90.0)
           (-90.0 90.0)
  end
  begin
     id 26 
     name rradius
     direction -1 -4.48942e-011 7.87951e-027   
     length 2.92792   
     axis 180 30 90   XYZ
    dof rx
    limits (-10.0 170.0)
  end
  begin
     id 27 
     name rwrist
     direction -1 -4.48969e-011 1.61068e-026   
     length 1.46396   
     axis -9.31229e-015 -90 -90   XYZ
    dof ry
    limits (-180.0 0.0)
  end
  begin
     id 28
     name rhand
     direction -1 -4.49043e-011 3.22136e-026   
     length 0.784497   
     axis -2.0555e-014 -90 -90   XYZ
    dof rx rz
    limits (-90.0 90.0)
           (-45.0 45.0)
  end
  begin
     id 29
     name rfingers
     direction -1 -4.48823e-011 6.44272e-026   
     length 0.632482   
     axis -4.11101e-014 -90 -90   XYZ
    dof rx
    limits (0.0 90.0)
  end
  begin
     id 30
     name rthumb
     direction -0.707107 -6.34923e-011 0.707107   
     length 0.908121   
     axis -90 -45 -2.85299e-015   XYZ
    dof rx rz
    limits (-45.0 45.0)
           (-45.0 45.0)
  end
:hierarchy
  begin
    root lhipjoint rhipjoint lowerback
    lhipjoint lfemur
    lfemur ltibia
    ltibia lfoot
    lfoot ltoes
    rhipjoint rfemur
    rfemur rtibia
    rtibia rfoot
    rfoot rtoes
    lowerback upperback
    upperback thorax
    thorax lowerneck lclavicle rclavicle
    lowerneck upperneck
    upperneck head
    lclavicle lhumerus
    lhumerus lradius
    lradius lwrist
    lwrist lhand lthumb
    lhand lfingers
    rclavicle rhumerus
    rhumerus rradius
    rradius rwrist
    rwrist rhand rthumb
    rhand rfingers
  end

#!OML:ASF F:\VICON\USERDATA\INSTALL\rory3\rory3.ASF
:FULLY-SPECIFIED
:DEGREES
125
root 0.430906 18.2418 0.723916 26.5481 2.95177 0.0562392
lowerback 9.3999 -0.64125 5.0416
upperback -3.84788 0.0144663 2.30772
thorax -9.41682 -0.216561 -0.372226
lowerneck 12.1698 -0.463713 2.93013
upperneck -16.7918 -4.73288 -24.3657
head -7.9665 -0.274797 -8.37811
rclavicle 7.95139e-016 3.65764e-014
rhumerus -20.3491 5.61595 -80.0915
rradius 127.09
rwrist 35.1609
rhand 9.60413 -2.70786
rfingers 7.12502
rthumb 34.7508 -29.3218
lclavicle 7.95139e-016 3.65764e-014
lhumerus -37.0156 -5.75524 80.8785
lradius 133.104
lwrist -25.6674
lhand -4.30151 23.0172
lfingers 7.12502
lthumb 21.4644 51.848
rfemur -33.1521 28.0323 4.5231
rtibia 12.4765
rfoot -35.2179 -32.4745
rtoes 43.3139
lfemur -32.8082 -14.4143 -11.8093
ltibia 17.0135
lfoot -3.20166 18.525
ltoes -15.4145
126
root 0.433437 18.2419 0.723726 26.5378 3.03065 -0.0614342
lowerback 9.39735 -0.648166 5.12237
upperback -3.8226 0.0137346 2.29906
thorax -9.3883 -0.22128 -0.427048
lowerneck 12.0665 -0.475066 2.99752
upperneck -16.6258 -4.74581 -24.621
head -7.90496 -0.281515 -8.47525
rclavicle 2.38542e-015 1.59028e-014
rhumerus -20.3135 5.65088 -80.153
rradius 127.068
rwrist 35.1679
rhand 9.56621 -2.84295
rfingers 7.12502
rthumb 34.7148 -29.4651
lclavicle 2.38542e-015 1.59028e-014
lhumerus -36.9446 -5.78956 80.7384
lradius 133.093
lwrist -25.4749
lhand -4.37419 23.0651
lfingers 7.12502
lthumb 21.3946 51.9039
rfemur -33.1401 28.1002 4.63095
rtibia 12.4619
rfoot -35.4924 -32.3024
rtoes 43.6147
lfemur -32.8307 -14.3836 -11.6811
ltibia 17.0407
lfoot -3.19043 18.4864
ltoes -15.6511
127
root 0.435233 18.2411 0.722611 26.5333 3.01733 -0.0174522
lowerback 9.42246 -0.647349 5.0059
upperback -3.81204 -0.00462749 2.23985
thorax -9.39099 -0.22517 -0.421948
lowerneck 12.0443 -0.470167 3.06577
upperneck -16.5075 -4.74784 -24.8732
head -7.87328 -0.275253 -8.57744
rclavicle -2.38542e-015 1.27222e-014
rhumerus -20.2985 5.70914 -80.2241
rradius 127.061
rwrist 35.1637
rhand 9.62398 -2.91595
rfingers 7.12502
rthumb 34.7696 -29.5255
lclavicle -2.38542e-015 1.27222e-014
lhumerus -36.9049 -5.78593 80.4872
lradius 133.091
lwrist -25.1932
lhand -4.48275 22.9489
lfingers 7.12502
lthumb 21.2903 51.7995
rfemur -33.0961 28.0966 4.57047
rtibia 12.376
rfoot -35.4521 -32.3888
rtoes 43.6764
lfemur -32.8595 -14.4037 -11.7367
ltibia 17.1159
lfoot -3.24747 18.5354
ltoes -15.4568
128
root 0.437073 18.2416 0.721805 26.4923 3.06012 -0.0463792
lowerback 9.50413 -0.676634 4.96876
upperback -3.80525 -0.044629 2.22541
thorax -9.43313 -0.243399 -0.40884
lowerneck 11.9879 -0.442241 2.99429
upperneck -16.3381 -4.71403 -25.032
head -7.80746 -0.256363 -8.6167
rclavicle 9.93923e-015 -2.54444e-014
rhumerus -20.2856 5.84717 -80.306
rradius 127.04
rwrist 35.1828
rhand 9.63256 -2.91564
rfingers 7.12502
rthumb 34.7778 -29.5233
lclavicle 9.93923e-015 -2.54444e-014
lhumerus -36.8961 -5.72779 80.4233
lradius 133.064
lwrist -25.194
lhand -4.53192 22.6998
lfingers 7.12502
lthumb 21.2431 51.5557
rfemur -32.9885 28.108 4.6303
rtibia 12.2766
rfoot -35.3577 -32.551
rtoes 43.5677
lfemur -32.8677 -14.4083 -11.7136
ltibia 17.2082
lfoot -3.28846 18.5076
ltoes -15.5362
129
root 0.438999 18.242 0.72034 26.4363 3.11758 -0.135489
lowerback 9.60653 -0.701367 4.99284
upperback -3.79501 -0.0673224 2.22954
thorax -9.4836 -0.256366 -0.412922
lowerneck 11.9298 -0.438331 2.93494
upperneck -16.1625 -4.71789 -25.2278
head -7.74737 -0.254039 -8.66854
rclavicle 1.51076e-014 5.56597e-015
rhumerus -20.2806 5.92679 -80.3553
rradius 127.044
rwrist 35.218
rhand 9.73695 -2.84118
rfingers 7.12502
rthumb 34.8768 -29.4259
lclavicle 1.51076e-014 5.56597e-015
lhumerus -36.9106 -5.70162 80.5791
lradius 133.008
lwrist -25.4169
lhand -4.59911 22.6814
lfingers 7.12502
lthumb 21.1786 51.5446
rfemur -32.9375 28.2179 4.70664
rtibia 12.2538
rfoot -35.4938 -32.5824
rtoes 43.5803
lfemur -32.8571 -14.3963 -11.6285
ltibia 17.2622
lfoot -3.25067 18.4474
ltoes -15.9344
130
root 0.441484 18.2418 0.718782 26.419 3.16036 -0.167931
lowerback 9.66284 -0.700441 4.98959
upperback -3.79612 -0.0663054 2.18603
thorax -9.5179 -0.257823 -0.457213
lowerneck 11.8465 -0.459197 2.97483
upperneck -15.9115 -4.72721 -25.4735
head -7.66184 -0.264116 -8.75251
rclavicle 7.95139e-016 -7.95139e-016
rhumerus -20.2939 5.89729 -80.3966
rradius 127.013
rwrist 35.2293
rhand 9.76046 -2.76456
rfingers 7.12502
rthumb 34.8991 -29.3441
lclavicle 7.95139e-016 -7.95139e-016
lhumerus -36.917 -5.78451 80.6614
lradius 133.031
lwrist -25.5117
lhand -4.56397 22.8318
lfingers 7.12502
lthumb 21.2123 51.6911
rfemur -32.8863 28.1782 4.77873
rtibia 12.2151
rfoot -35.3105 -32.7124
rtoes 43.317
lfemur -32.8936 -14.3997 -11.5936
ltibia 17.3291
lfoot -3.35305 18.4106
ltoes -15.3182
131
root 0.444077 18.2409 0.71766 26.4285 3.15454 -0.13669
lowerback 9.6648 -0.682592 4.9057
upperback -3.79631 -0.059461 2.12108
thorax -9.5179 -0.251768 -0.480999
lowerneck 11.7678 -0.493881 3.00358
upperneck -15.6572 -4.7605 -25.7359
head -7.58126 -0.283891 -8.83868
rclavicle -1.74931e-014 3.02153e-014
rhumerus -20.3131 5.90535 -80.4383
rradius 126.978
rwrist 35.1834
rhand 9.65365 -2.76183
rfingers 7.12502
rthumb 34.7978 -29.3649
lclavicle -1.74931e-014 3.02153e-014
lhumerus -36.9051 -5.89414 80.6105
lradius 133.044
lwrist -25.494
lhand -4.5917 23.041
lfingers 7.12502
lthumb 21.1857 51.9034
rfemur -32.8513 28.0692 4.79739
rtibia 12.1923
rfoot -35.1928 -32.7287
rtoes 43.2452
lfemur -32.9314 -14.3094 -11.6804
ltibia 17.3839
lfoot -3.41843 18.3005
ltoes -15.0387
132
root 0.447051 18.2406 0.717126 26.4552 3.14072 -0.123269
lowerback 9.64893 -0.691368 4.82116
upperback -3.80641 -0.0869238 2.08201
thorax -9.51997 -0.261483 -0.470575
lowerneck 11.6691 -0.501815 2.94379
upperneck -15.423 -4.77014 -25.9663
head -7.49747 -0.289846 -8.89907
rclavicle 3.97569e-016 4.77083e-015
rhumerus -20.353 6.05806 -80.5448
rradius 126.992
rwrist 35.1584
rhand 9.63133 -2.846
rfingers 7.12502
rthumb 34.7766 -29.4539
lclavicle 3.97569e-016 4.77083e-015
lhumerus -36.9596 -5.9013 80.5742
lradius 133.058
lwrist -25.4875
lhand -4.6619 23.1653
lfingers 7.12502
lthumb 21.1182 52.0352
rfemur -32.9005 28.0296 4.76681
rtibia 12.2282
rfoot -35.2187 -32.6799
rtoes 43.2421
lfemur -32.9661 -14.2213 -11.7409
ltibia 17.3996
lfoot -3.36239 18.2246
ltoes -15.3984
133
root 0.449921 18.2395 0.716259 26.4906 3.18472 -0.101174
lowerback 9.63103 -0.727303 4.76887
upperback -3.82069 -0.146917 2.03707
thorax -9.52726 -0.289223 -0.47863
lowerneck 11.6303 -0.497663 2.99614
upperneck -15.2493 -4.77375 -26.2922
head -7.44898 -0.284624 -9.02393
rclavicle 6.36111e-015 3.18055e-015
rhumerus -20.4076 6.22191 -80.6726
rradius 127.009
rwrist 35.1562
rhand 9.61301 -2.95253
rfingers 7.12502
rthumb 34.7592 -29.5645
lclavicle 6.36111e-015 3.18055e-015
lhumerus -36.9889 -5.86106 80.5107
lradius 133.062
lwrist -25.5165
lhand -4.67596 23.1297
lfingers 7.12502
lthumb 21.1047 52.0011
rfemur -32.9663 28.0431 4.69876
rtibia 12.2648
rfoot -35.3984 -32.6075
rtoes 43.3095
lfemur -33.0266 -14.213 -11.7607
ltibia 17.4293
lfoot -3.39446 18.1758
ltoes -15.3809
